<?xml version="1.0" encoding="UTF-8"?>
<svg version="1.1" xmlns="http://www.w3.org/2000/svg" width="218" height="240">
<path d="M0 0 C21.45 0 42.9 0 65 0 C63.43109514 3.92226216 62.64595771 5.74513658 60.09375 8.75 C59.51947266 9.43457275 58.94519531 10.11914551 58.35351562 10.82446289 C57.74185547 11.54239014 57.13019531 12.26031738 56.5 13 C55.22753405 14.51816435 53.95671342 16.03770918 52.6875 17.55859375 C52.06101563 18.30866699 51.43453125 19.05874023 50.7890625 19.83154297 C46.71194398 24.77326878 42.85695366 29.88565119 39 35 C38.35804687 35.85078125 37.71609375 36.7015625 37.0546875 37.578125 C35.69860619 39.3820285 34.34837971 41.19033249 33 43 C42.26256563 41.94938492 47.00458433 37.74891935 52.734375 30.671875 C53.70143209 29.45069232 54.66491746 28.22667358 55.625 27 C56.34538452 26.08275146 56.34538452 26.08275146 57.08032227 25.14697266 C59.01435306 22.65925974 60.86779065 20.21086554 62.54296875 17.5390625 C63.94102878 15.43121815 64.79173108 14.25334182 67 13 C71.72455711 12.44198144 76.26802505 12.59162408 81 13 C79.43163767 18.20089185 76.12086991 21.79763507 72.6875 25.875 C68.5820956 30.79404627 64.66082868 35.73884659 61 41 C64.98485266 40.78475978 66.65411604 40.32514129 69.60546875 37.55078125 C70.48087563 36.48326513 71.34081869 35.40293965 72.1875 34.3125 C72.65889404 33.74249268 73.13028809 33.17248535 73.6159668 32.58520508 C76.1407191 29.50023536 78.46687181 26.34940024 80.6640625 23.0234375 C87.19061691 13.41797864 87.19061691 13.41797864 92.8046875 12.12109375 C96.31557886 12.12462583 99.55081626 12.3655516 103 13 C102.40686386 16.07600236 101.5086347 17.94406503 99.5234375 20.35546875 C99.02038086 20.97413818 98.51732422 21.59280762 97.99902344 22.23022461 C97.4630957 22.87612549 96.92716797 23.52202637 96.375 24.1875 C95.28339885 25.52567038 94.19225164 26.86421118 93.1015625 28.203125 C92.57079102 28.85087891 92.04001953 29.49863281 91.49316406 30.16601562 C88.59551106 33.72506882 85.79901931 37.36324604 83 41 C87.98387288 40.5728109 90.03314396 39.55620371 93.25 35.75 C94.39082031 34.40808594 94.39082031 34.40808594 95.5546875 33.0390625 C102.96836928 24.20156627 102.96836928 24.20156627 109.30859375 14.6328125 C111 13 111 13 114.57421875 12.609375 C115.94585748 12.6358801 117.31721938 12.6834691 118.6875 12.75 C119.7403418 12.77707031 119.7403418 12.77707031 120.81445312 12.8046875 C122.54355436 12.85173787 124.27195205 12.92348127 126 13 C124.32200336 16.86220456 121.79676002 19.98692963 119.1875 23.25 C118.7119165 23.84973633 118.23633301 24.44947266 117.74633789 25.06738281 C113.83720111 29.98331326 109.89130653 34.86996177 105.9375 39.75 C105.37764404 40.44125977 104.81778809 41.13251953 104.2409668 41.84472656 C103.45459839 42.81104004 103.45459839 42.81104004 102.65234375 43.796875 C101.95612915 44.65297363 101.95612915 44.65297363 101.24584961 45.52636719 C98.34880243 48.95309201 98.34880243 48.95309201 96.12945557 49.2515564 C95.37033875 49.25281525 94.61122192 49.2540741 93.82910156 49.25537109 C92.53700775 49.26580948 92.53700775 49.26580948 91.21881104 49.27645874 C90.28550964 49.27546173 89.35220825 49.27446472 88.390625 49.2734375 C86.41926523 49.29373413 84.44791111 49.31458506 82.4765625 49.3359375 C79.36486057 49.3585074 76.25338148 49.37499363 73.14160156 49.38085938 C70.14086439 49.39040067 67.14113557 49.4242082 64.140625 49.4609375 C62.7528183 49.45336929 62.7528183 49.45336929 61.3369751 49.44564819 C55.65833258 49.53182306 52.58499846 50.35742474 48 54 C45.12037166 54.95987611 43.33372559 55.12153814 40.3449707 55.11352539 C39.40422195 55.11344986 38.46347321 55.11337433 37.49421692 55.11329651 C36.48163315 55.10813522 35.46904938 55.10297394 34.42578125 55.09765625 C33.38681198 55.0962413 32.34784271 55.09482635 31.27738953 55.09336853 C27.95573052 55.08776656 24.63413867 55.07521372 21.3125 55.0625 C19.06184993 55.05748525 16.81119881 55.0529223 14.56054688 55.04882812 C9.04034163 55.03779649 3.52017561 55.02105643 -2 55 C0.42494864 52.57505136 1.54351364 52.63730009 4.875 52.1875 C8.73703191 51.50104057 9.74799909 51.25200091 12.625 48.375 C13.07875 47.59125 13.5325 46.8075 14 46 C12.35 45.67 10.7 45.34 9 45 C9 44.34 9 43.68 9 43 C10.258125 42.95875 11.51625 42.9175 12.8125 42.875 C19.97901302 41.26505012 23.42932508 34.68689191 27.46728516 29.07324219 C30.15409449 25.43890246 33.057074 21.98139574 35.9375 18.5 C37.01202392 17.20031651 38.08377592 15.89833484 39.15234375 14.59375 C39.60601318 14.04396484 40.05968262 13.49417969 40.52709961 12.92773438 C42.48194443 10.36923037 44.23350127 7.69081569 46 5 C44.38943726 5.0314209 44.38943726 5.0314209 42.74633789 5.06347656 C38.72645639 5.13639829 34.70663222 5.1819874 30.6862793 5.21972656 C28.95310605 5.2397241 27.21999925 5.26693148 25.48706055 5.30175781 C7.75140892 5.64901503 7.75140892 5.64901503 0 1 C0 0.67 0 0.34 0 0 Z " fill="#E50000" transform="translate(2,185)"/>
<path d="M0 0 C3.86585572 0.60904352 6.90457948 1.7759322 10.38671875 3.546875 C11.40830078 4.0625 12.42988281 4.578125 13.48242188 5.109375 C15.06893555 5.92148437 15.06893555 5.92148437 16.6875 6.75 C17.72583984 7.2759375 18.76417969 7.801875 19.83398438 8.34375 C21.89224939 9.38643221 23.94940147 10.43131461 26.00537109 11.47851562 C30.32621257 13.67381027 34.6618827 15.83909003 39 18 C38.67 19.32 38.34 20.64 38 22 C38.66 22.33 39.32 22.66 40 23 C40 22.01 40 21.02 40 20 C44.29625631 20.48821094 46.6615409 21.29294512 50 24 C34.46975845 42.59852636 13.32387806 52.86398368 -10.75390625 55.39453125 C-13.83580154 55.64387553 -16.91180996 55.85123337 -20 56 C-16.31773729 53.8172154 -12.40189215 53.1441596 -8.25 52.375 C-7.55261719 52.2409375 -6.85523438 52.106875 -6.13671875 51.96875 C-4.42548068 51.64056736 -2.71286829 51.31956498 -1 51 C-2.32 49.68 -3.64 48.36 -5 47 C-0.545 46.505 -0.545 46.505 4 46 C3.67 45.67 3.34 45.34 3 45 C2.95919217 43.00041636 2.95745644 40.99954746 3 39 C2.16855469 38.72285156 1.33710938 38.44570312 0.48046875 38.16015625 C-3.6796875 36.7734375 -7.83984375 35.38671875 -12 34 C-10.87548273 36.9719385 -9.77706209 39.33440687 -8 42 C-8 43.32 -8 44.64 -8 46 C-10 46 -10 46 -12.4375 43.6875 C-13.283125 42.800625 -14.12875 41.91375 -15 41 C-15.598125 40.401875 -16.19625 39.80375 -16.8125 39.1875 C-17.204375 38.795625 -17.59625 38.40375 -18 38 C-17.67 37.01 -17.34 36.02 -17 35 C-18.99983534 35.79117904 -18.99983534 35.79117904 -21 37 C-22.25433458 40.76300374 -22.10695422 44.27210909 -22.0625 48.1875 C-22.05798828 48.93708984 -22.05347656 49.68667969 -22.04882812 50.45898438 C-22.03706354 52.30602383 -22.01912865 54.15302213 -22 56 C-49.76825216 56.49470642 -49.76825216 56.49470642 -59 54 C-61.57053328 50.14420008 -61.76920578 47.49041938 -61.71484375 42.91796875 C-60.32594985 37.24854938 -55.39191227 34.45988814 -51 31 C-49.18816264 29.0726829 -47.61411337 27.09834738 -46 25 C-42.43790164 26.18736612 -41.67094844 27.36511988 -39.4375 30.3125 C-38.83808594 31.09238281 -38.23867187 31.87226562 -37.62109375 32.67578125 C-36.18600824 34.73331348 -35.04598945 36.72588364 -34 39 C-31.8002164 37.31399806 -29.60976343 35.61771148 -27.4296875 33.90625 C-26.02982896 32.8079687 -24.62243212 31.71886721 -23.1953125 30.65625 C-13.17802078 22.79579142 -6.34807728 10.83428832 0 0 Z M1 4 C1.33 4.66 1.66 5.32 2 6 C2.33 5.34 2.66 4.68 3 4 C2.34 4 1.68 4 1 4 Z M0 6 C0 9 0 9 0 9 Z M6 6 C6.33 6.99 6.66 7.98 7 9 C7.66 8.34 8.32 7.68 9 7 C8.01 6.67 7.02 6.34 6 6 Z M-2 9 C-1 11 -1 11 -1 11 Z M-4 12 C-3 14 -3 14 -3 14 Z M-6 15 C-5 17 -5 17 -5 17 Z M31 18 C31.33 18.99 31.66 19.98 32 21 C32.66 20.34 33.32 19.68 34 19 C33.01 18.67 32.02 18.34 31 18 Z M43 24 C43.33 24.99 43.66 25.98 44 27 C44 26.01 44 25.02 44 24 C43.67 24 43.34 24 43 24 Z M33 35 C32.67 35.66 32.34 36.32 32 37 C32.99 36.67 33.98 36.34 35 36 C34.34 35.67 33.68 35.34 33 35 Z M-37 39 C-37 39.66 -37 40.32 -37 41 C-36.01 40.67 -35.02 40.34 -34 40 C-34.99 39.67 -35.98 39.34 -37 39 Z M-24 48 C-23 50 -23 50 -23 50 Z " fill="#E50000" transform="translate(138,41)"/>
<path d="M0 0 C1.90845703 0.04060547 1.90845703 0.04060547 3.85546875 0.08203125 C5.31919922 0.13423828 5.31919922 0.13423828 6.8125 0.1875 C5.38755239 4.44693799 3.30581063 7.24401685 0.375 10.625 C-0.53043725 11.68336589 -1.43401232 12.74332708 -2.3359375 13.8046875 C-2.80483398 14.35608398 -3.27373047 14.90748047 -3.75683594 15.47558594 C-6.15629768 18.34675074 -8.4516066 21.2977603 -10.75 24.25 C-23.20374449 40.20374449 -23.20374449 40.20374449 -27.1875 44.1875 C-21.58259847 44.3608082 -15.979262 44.48768837 -10.37231445 44.57202148 C-8.46611359 44.60718048 -6.56010092 44.65491871 -4.65454102 44.71557617 C-1.91114913 44.80070359 0.82974527 44.84023088 3.57421875 44.87109375 C4.84793587 44.92528725 4.84793587 44.92528725 6.14738464 44.98057556 C10.76503799 45.02536281 10.76503799 45.02536281 14.4960022 42.58255005 C16.08154381 40.45723745 16.08154381 40.45723745 17.8125 37.1875 C17.04059326 37.16768066 16.26868652 37.14786133 15.47338867 37.12744141 C11.98191042 37.03228857 8.49103848 36.92256953 5 36.8125 C3.78505859 36.7815625 2.57011719 36.750625 1.31835938 36.71875 C0.15498047 36.68007812 -1.00839844 36.64140625 -2.20703125 36.6015625 C-3.28057861 36.5701416 -4.35412598 36.5387207 -5.46020508 36.50634766 C-8.1875 36.1875 -8.1875 36.1875 -11.1875 34.1875 C-6.08567016 27.34809043 -0.94652606 20.54134067 4.27294922 13.79125977 C7.12725219 10.09596686 9.92131235 6.36251547 12.65625 2.578125 C13.8125 1.1875 13.8125 1.1875 15.8125 0.1875 C17.17095193 0.09847507 18.53365974 0.06989868 19.89501953 0.07397461 C21.15610031 0.07408791 21.15610031 0.07408791 22.44265747 0.07420349 C23.80522171 0.08194542 23.80522171 0.08194542 25.1953125 0.08984375 C26.12471649 0.0912587 27.05412048 0.09267365 28.01168823 0.09413147 C30.98699124 0.09973947 33.96221964 0.11229332 36.9375 0.125 C38.95182183 0.13001397 40.96614484 0.13457705 42.98046875 0.13867188 C47.92450802 0.1497115 52.86849135 0.16698151 57.8125 0.1875 C56.15644619 4.77823521 54.15806932 7.8062779 49.8125 10.1875 C43.46605162 11.61981918 36.71732869 11.31168399 30.25 11.25 C28.88004883 11.24323242 28.88004883 11.24323242 27.48242188 11.23632812 C25.25904262 11.2246874 23.03580879 11.20833851 20.8125 11.1875 C20.44511719 12.24517578 20.44511719 12.24517578 20.0703125 13.32421875 C18.63782472 16.58513037 16.81728131 19.14884115 14.6875 22 C13.96304688 22.97582031 13.23859375 23.95164063 12.4921875 24.95703125 C11.93789062 25.69308594 11.38359375 26.42914063 10.8125 27.1875 C11.36711914 27.16655273 11.92173828 27.14560547 12.49316406 27.12402344 C15.01609023 27.04066452 17.53872649 26.98878132 20.0625 26.9375 C20.93519531 26.90398437 21.80789062 26.87046875 22.70703125 26.8359375 C29.18676686 26.73701024 29.18676686 26.73701024 32.37890625 29.03515625 C33.8125 31.1875 33.8125 31.1875 34.5 33.875 C33.62626091 38.0848338 31.69360455 40.32621136 28.9296875 43.55078125 C26.77338949 45.9701862 26.77338949 45.9701862 25.94445801 48.38284302 C24.56680259 51.38887498 23.38502581 53.07705105 20.8125 55.1875 C14.65014362 56.5062241 8.5616533 56.23503171 2.2890625 56.06640625 C0.45920953 56.04960964 -1.37068405 56.03680343 -3.20059204 56.02781677 C-8.00539891 55.99353396 -12.80773744 55.90520315 -17.61157227 55.80548096 C-22.51805223 55.71323329 -27.42493313 55.67227076 -32.33203125 55.62695312 C-41.95160244 55.53057438 -51.56934559 55.37707369 -61.1875 55.1875 C-58.30155328 53.67648334 -56.05331545 52.95001657 -52.82421875 52.53515625 C-47.18800899 51.33833999 -45.10639705 48.23763722 -42 43.625 C-40.88737361 42.07317898 -39.77138028 40.52376746 -38.65234375 38.9765625 C-38.08499512 38.1815332 -37.51764648 37.38650391 -36.93310547 36.56738281 C-34.13196474 32.74842899 -31.10303341 29.1291987 -28.0625 25.5 C-23.15184071 19.60080483 -18.34059221 13.63956365 -13.64990234 7.5637207 C-12.50983495 6.09396053 -11.34974218 4.63978845 -10.1875 3.1875 C-9.51847656 2.26130859 -9.51847656 2.26130859 -8.8359375 1.31640625 C-6.06492689 -0.58127637 -3.27674306 -0.09018559 0 0 Z " fill="#E50000" transform="translate(160.1875,184.8125)"/>
<path d="M0 0 C1.38952912 -0.00269796 2.7790564 -0.0065829 4.1685791 -0.01159668 C7.07367008 -0.01747762 9.97826742 -0.00897511 12.88330078 0.00976562 C16.59569851 0.03255543 20.30693939 0.01942463 24.01929474 -0.00452423 C26.88650126 -0.01902092 29.75343627 -0.01435876 32.62065125 -0.00401306 C33.98890828 -0.00135641 35.35719045 -0.00457803 36.72541809 -0.01393127 C48.71301135 -0.07790708 48.71301135 -0.07790708 52.54101562 2.25195312 C56.27350204 5.94644985 57.71556308 8.07377855 58.18432617 13.40356445 C58.18385527 14.90063742 58.16714701 16.39776747 58.13671875 17.89453125 C58.13247391 18.68651413 58.12822906 19.47849701 58.12385559 20.29447937 C58.10713163 22.81125627 58.06949225 25.32721724 58.03125 27.84375 C58.01619499 29.55532693 58.00250801 31.26691649 57.99023438 32.97851562 C57.95724885 37.16307233 57.90551098 41.34702307 57.84375 45.53125 C56.19375 44.87125 54.54375 44.21125 52.84375 43.53125 C52.82916748 42.61835205 52.81458496 41.7054541 52.79956055 40.76489258 C52.73834205 37.36326389 52.66416127 33.96242319 52.58129883 30.5612793 C52.54813741 29.09198578 52.52007822 27.62256756 52.49731445 26.15307617 C52.46360481 24.03510632 52.41128567 21.91827005 52.35546875 19.80078125 C52.32928467 18.52823486 52.30310059 17.25568848 52.27612305 15.94458008 C51.81835798 12.33079501 51.06827227 10.3902124 48.84375 7.53125 C46.14115681 6.50357889 46.14115681 6.50357889 43.15625 6.21875 C42.16238281 6.07824219 41.16851562 5.93773437 40.14453125 5.79296875 C39.38527344 5.70660156 38.62601563 5.62023437 37.84375 5.53125 C37.410625 6.7378125 37.410625 6.7378125 36.96875 7.96875 C35.84375 10.53125 35.84375 10.53125 33.84375 11.53125 C31.39797877 11.64197311 28.98153745 11.69534126 26.53515625 11.69921875 C25.4513694 11.70421135 25.4513694 11.70421135 24.34568787 11.70930481 C22.8166467 11.71436988 21.28759447 11.71671326 19.75854492 11.71655273 C17.4189228 11.71873816 15.07977297 11.7368948 12.74023438 11.75585938 C11.25520995 11.75879359 9.77018328 11.7607782 8.28515625 11.76171875 C7.5850795 11.76890427 6.88500275 11.77608978 6.16371155 11.78349304 C2.49251732 11.76622262 0.98622344 11.6262323 -2.15625 9.53125 C-2.48625 8.54125 -2.81625 7.55125 -3.15625 6.53125 C-9.56638725 6.01824763 -9.56638725 6.01824763 -15.15625 8.53125 C-17.70741587 14.13713575 -17.43148072 19.68070119 -17.39916992 25.71118164 C-17.40106827 26.82924698 -17.40296661 27.94731232 -17.40492249 29.09925842 C-17.40862665 32.79671241 -17.39792063 36.49396967 -17.38671875 40.19140625 C-17.38552533 42.77811154 -17.38507413 45.36481727 -17.3853302 47.95152283 C-17.3837653 53.38283182 -17.37572874 58.81407062 -17.36206055 64.24536133 C-17.34645443 70.46849907 -17.34105845 76.69157517 -17.3417961 82.91473109 C-17.34241404 88.94815771 -17.33712177 94.98155994 -17.32900429 101.01498222 C-17.32585589 103.55705079 -17.32385934 106.09912108 -17.32311058 108.64119148 C-17.31820245 116.60548031 -17.27166946 124.5677672 -17.15625 132.53125 C-17.14253483 133.57550518 -17.12881966 134.61976036 -17.11468887 135.69565964 C-17.06551285 138.634812 -16.98673995 141.5713996 -16.89575195 144.50952148 C-16.88230083 145.37157983 -16.8688497 146.23363817 -16.85499096 147.1218195 C-16.70830069 150.81283469 -16.54881649 152.94064056 -14.47294617 156.06375122 C-11.56388943 157.90647763 -9.78504158 158.03240323 -6.34960938 158.03295898 C-5.1815979 158.04233994 -4.01358643 158.05172089 -2.81018066 158.06138611 C-1.55282104 158.05015213 -0.29546143 158.03891815 1 158.02734375 C2.29442017 158.02879898 3.58884033 158.03025421 4.92248535 158.03175354 C7.6596311 158.0331365 10.39625219 158.02059815 13.13330078 157.99780273 C16.63731579 157.96941737 20.14045938 157.97215629 23.64453888 157.98489285 C26.99228353 157.99353026 30.33977005 157.97840063 33.6875 157.96484375 C34.94485962 157.96777939 36.20221924 157.97071503 37.49768066 157.97373962 C39.24969788 157.95471336 39.24969788 157.95471336 41.03710938 157.93530273 C42.06429077 157.92989975 43.09147217 157.92449677 44.14978027 157.91893005 C47.25427011 157.47217344 48.61539526 156.71064992 50.84375 154.53125 C51.87641482 151.43325554 51.99884525 149.20865727 52.04907227 145.95825195 C52.06901749 144.81729568 52.08896271 143.67633942 52.10951233 142.50080872 C52.12622482 141.26948715 52.14293732 140.03816559 52.16015625 138.76953125 C52.1913279 136.87813667 52.1913279 136.87813667 52.22312927 134.9485321 C52.27747122 131.59979542 52.32771166 128.25104795 52.37597656 124.90222168 C52.42625357 121.48358771 52.48190724 118.06504174 52.53710938 114.64648438 C52.644285 107.94147638 52.74605512 101.23640247 52.84375 94.53125 C54.49375 93.87125 56.14375 93.21125 57.84375 92.53125 C57.91333568 100.52865886 57.96660447 108.52594069 57.99918652 116.52357769 C58.01482623 120.23742574 58.03603309 123.95106628 58.07006836 127.66479492 C58.10272295 131.25041041 58.12061576 134.83582662 58.12838173 138.42157936 C58.13391435 139.78790231 58.14471836 141.15421465 58.16094017 142.5204525 C58.18279275 144.43759857 58.18397607 146.35494622 58.18432617 148.2722168 C58.19431892 149.90769722 58.19431892 149.90769722 58.20451355 151.57621765 C57.64524464 156.15721737 55.74521058 158.69913254 52.40625 161.78125 C48.42741458 164.49850346 45.11504369 164.65772829 40.36010742 164.67651367 C39.26184128 164.68289352 38.16357513 164.68927338 37.0320282 164.69584656 C35.84970108 164.69695938 34.66737396 164.6980722 33.44921875 164.69921875 C32.22850174 164.70254715 31.00778473 164.70587555 29.75007629 164.70930481 C27.1669655 164.71436789 24.58384817 164.71671333 22.00073242 164.71655273 C18.0570186 164.71873574 14.11358608 164.73688879 10.16992188 164.75585938 C7.65885512 164.75879414 5.14778704 164.76077838 2.63671875 164.76171875 C1.46046432 164.76890427 0.2842099 164.77608978 -0.9276886 164.78349304 C-14.40470146 164.74606149 -14.40470146 164.74606149 -18.8984375 161.12890625 C-22.33443844 156.47253257 -23.28041276 153.49527401 -23.29669189 147.7820282 C-23.30525711 145.9840126 -23.30525711 145.9840126 -23.31399536 144.14967346 C-23.31511322 142.83272995 -23.31623108 141.51578644 -23.31738281 140.15893555 C-23.32201165 138.75937774 -23.3270364 137.35982119 -23.33242798 135.96026611 C-23.34554794 132.15644368 -23.35199618 128.35263889 -23.35643864 124.54879737 C-23.35937011 122.17193664 -23.36347506 119.79508073 -23.36794281 117.41822243 C-23.38161688 109.9804924 -23.39128389 102.54277339 -23.3951447 95.10503167 C-23.39962492 86.52130549 -23.41717146 77.93773858 -23.4461453 69.35406083 C-23.46776735 62.71786475 -23.47784927 56.08171348 -23.47918582 49.44548255 C-23.48023351 45.48257659 -23.48613343 41.51982038 -23.50400543 37.55695152 C-23.52049518 33.82802891 -23.52263736 30.09936846 -23.51386642 26.37042236 C-23.51273005 24.35339959 -23.52644056 22.33638549 -23.5406189 20.31941223 C-23.53504974 19.1122757 -23.52948059 17.90513916 -23.52374268 16.66142273 C-23.52520924 15.61631877 -23.5266758 14.57121481 -23.5281868 13.49444103 C-22.93944847 8.8040094 -21.14452773 5.53629241 -17.85351562 2.18945312 C-12.59599583 -0.9203002 -5.90202411 -0.04034643 0 0 Z " fill="#E50000" transform="translate(93.15625,-0.53125)"/>
<path d="M0 0 C0.68191406 0.04189453 1.36382812 0.08378906 2.06640625 0.12695312 C2.76378906 0.14951172 3.46117188 0.17207031 4.1796875 0.1953125 C5.8928556 0.25398264 7.60491248 0.34366056 9.31640625 0.43945312 C5.23706187 8.66970932 5.23706187 8.66970932 2.31640625 10.43945312 C-2.38948836 10.96292381 -6.96830704 10.78400723 -11.68359375 10.43945312 C-9.47058088 3.98483226 -7.40304862 -0.17968565 0 0 Z " fill="#E50000" transform="translate(82.68359375,185.560546875)"/>
<path d="M0 0 C-1.37344736 4.00588813 -2.90492393 7.06590943 -6 10 C-9.453125 10.48828125 -9.453125 10.48828125 -13.25 10.3125 C-14.51328125 10.26738281 -15.7765625 10.22226563 -17.078125 10.17578125 C-18.04234375 10.11777344 -19.0065625 10.05976563 -20 10 C-19.26182542 6.63801677 -18.26316024 3.88282268 -16.0078125 1.1953125 C-11.39297141 -1.55204426 -5.1740229 -0.37807474 0 0 Z " fill="#E50000" transform="translate(137,186)"/>
<path d="M0 0 C1.90845703 0.04060547 1.90845703 0.04060547 3.85546875 0.08203125 C5.31919922 0.13423828 5.31919922 0.13423828 6.8125 0.1875 C5.43742646 4.19813115 3.93185109 7.26956397 0.8125 10.1875 C-1.99989326 10.56148847 -4.16342155 10.67043015 -6.9375 10.5 C-7.63488281 10.47744141 -8.33226563 10.45488281 -9.05078125 10.43164062 C-10.76394935 10.37297048 -12.47600623 10.28329256 -14.1875 10.1875 C-8.48541951 -0.23354366 -8.48541951 -0.23354366 0 0 Z " fill="#E50000" transform="translate(107.1875,185.8125)"/>
<path d="M0 0 C12.54 0 25.08 0 38 0 C37.34 1.32 36.68 2.64 36 4 C31.68763079 4.08789715 27.3754955 4.1406923 23.0625 4.1875 C21.85013672 4.21263672 20.63777344 4.23777344 19.38867188 4.26367188 C12.22490302 4.3219139 6.64146217 3.72966244 0 1 C0 0.67 0 0.34 0 0 Z " fill="#E50000" transform="translate(7,192)"/>
<path d="M0 0 C9.24 0 18.48 0 28 0 C27.67 0.99 27.34 1.98 27 3 C18.09 3 9.18 3 0 3 C0 2.01 0 1.02 0 0 Z " fill="#E60000" transform="translate(97,149)"/>
<path d="M0 0 C8.58 0 17.16 0 26 0 C25.67 0.99 25.34 1.98 25 3 C21.77085248 3.02917228 18.54173917 3.04685663 15.3125 3.0625 C13.94448242 3.07506836 13.94448242 3.07506836 12.54882812 3.08789062 C11.66259766 3.09111328 10.77636719 3.09433594 9.86328125 3.09765625 C9.05157471 3.10289307 8.23986816 3.10812988 7.40356445 3.11352539 C4.85135327 2.9929791 2.48973863 2.559949 0 2 C0 1.34 0 0.68 0 0 Z " fill="#E50000" transform="translate(15,197)"/>
<path d="M0 0 C-0.33 0.99 -0.66 1.98 -1 3 C-1.99 3.33 -2.98 3.66 -4 4 C-2.68 4.66 -1.36 5.32 0 6 C-3.55242882 7.18414294 -4.69830562 6.69535532 -8.1875 5.5625 C-9.08855469 5.27503906 -9.98960938 4.98757812 -10.91796875 4.69140625 C-11.94857422 4.34916016 -11.94857422 4.34916016 -13 4 C-8.93662608 1.29108405 -4.89951609 0 0 0 Z " fill="#E50000" transform="translate(69,86)"/>
<path d="M0 0 C4.62 0 9.24 0 14 0 C14 0.66 14 1.32 14 2 C9.71 2 5.42 2 1 2 C0.67 1.34 0.34 0.68 0 0 Z " fill="#E50000" transform="translate(24,201)"/>
<path d="M0 0 C-3.65172633 2.26849666 -7.0127118 2.3895951 -11.25 2.625 C-12.51328125 2.69976562 -13.7765625 2.77453125 -15.078125 2.8515625 C-16.04234375 2.90054688 -17.0065625 2.94953125 -18 3 C-12.37804842 -0.07333353 -6.2931511 -0.15732878 0 0 Z " fill="#E60000" transform="translate(129,101)"/>
<path d="M0 0 C0.99 0.99 1.98 1.98 3 3 C2.01 3.495 2.01 3.495 1 4 C0.67 2.68 0.34 1.36 0 0 Z " fill="#E50000" transform="translate(120,82)"/>
<path d="M0 0 C2 1 2 1 2 1 Z " fill="#E70000" transform="translate(129,100)"/>
</svg>
